<svg xmlns="http://www.w3.org/2000/svg" width="32" height="32" viewBox="0 0 32 32">
  <g id="Group_17" data-name="Group 17" transform="translate(68 168) rotate(180)">
    <g id="Ellipse_4" data-name="Ellipse 4" transform="translate(36 136)" fill="#fff" stroke="#253447" stroke-width="1">
      <circle cx="16" cy="16" r="16" stroke="none"/>
      <circle cx="16" cy="16" r="15.5" fill="none"/>
    </g>
    <path id="Path_5" data-name="Path 5" d="M222.532,328.133a.411.411,0,0,1-.289-.118.4.4,0,0,1,0-.569l7.2-7.092-7.2-7.091a.4.4,0,0,1,0-.569.413.413,0,0,1,.578,0l7.487,7.376a.4.4,0,0,1,0,.569l-7.487,7.376A.412.412,0,0,1,222.532,328.133Z" transform="translate(-174.124 -168.576)" fill="#253447"/>
  </g>
</svg>
