<svg xmlns="http://www.w3.org/2000/svg" width="40" height="40" viewBox="0 0 40 40">
  <g id="Group_836" data-name="Group 836" transform="translate(120 120)">
    <circle id="Ellipse_25" data-name="Ellipse 25" cx="20" cy="20" r="20" transform="translate(-120 -120)" fill="rgba(255,255,255,0.2)"/>
    <path id="Path_39" data-name="Path 39" d="M-77.583-81.75a4.167,4.167,0,0,1-4.167,4.167,4.167,4.167,0,0,1-4.167-4.167,4.167,4.167,0,0,1,4.167-4.167A4.167,4.167,0,0,1-77.583-81.75Zm-4.167-2.083a2.084,2.084,0,0,0-2.083,2.083,2.084,2.084,0,0,0,2.083,2.083,2.084,2.084,0,0,0,2.083-2.083A2.084,2.084,0,0,0-81.75-83.833Zm-6.667-1.25v-1.25a.417.417,0,0,0-.417-.417H-90.5a.417.417,0,0,0-.417.417v1.25a.417.417,0,0,0,.417.417h1.667A.417.417,0,0,0-88.417-85.083Zm11.25-3.75h-3.75l-.373-.745A1.667,1.667,0,0,0-82.78-90.5H-85.3a1.667,1.667,0,0,0-1.491.921l-.372.745h-4.167A1.667,1.667,0,0,0-93-87.167V-76.75a1.667,1.667,0,0,0,1.667,1.667h14.167A1.667,1.667,0,0,0-75.5-76.75V-87.167A1.667,1.667,0,0,0-77.167-88.833ZM-90.5-83h1.667" transform="translate(-15.75 -17.208)" fill="none" stroke="#253447" stroke-linecap="round" stroke-linejoin="round" stroke-width="1"/>
  </g>
</svg>
