<svg id="Group_83" data-name="Group 83" xmlns="http://www.w3.org/2000/svg" width="32" height="32" viewBox="0 0 32 32">
  <circle id="Ellipse_8" data-name="Ellipse 8" cx="16" cy="16" r="16" fill="#8900fa"/>
  <path id="Path_22" data-name="Path 22" d="M35.667,30.333H39v7.333a2,2,0,0,1-2,2H23a2,2,0,0,1-2-2V30.333h3.333V31a.666.666,0,0,0,.667.667h.667A.666.666,0,0,0,26.333,31v-.667h7.333V31a.666.666,0,0,0,.667.667H35A.666.666,0,0,0,35.667,31Zm3.333-2v1.333H35.667V29A.666.666,0,0,0,35,28.333h-.667a.666.666,0,0,0-.667.667v.667H26.333V29a.666.666,0,0,0-.667-.667H25a.666.666,0,0,0-.667.667v.667H21V28.333a2,2,0,0,1,2-2h1.333V25a2,2,0,0,1,2-2h7.333a2,2,0,0,1,2,2v1.333H37A2,2,0,0,1,39,28.333ZM34.333,25a.667.667,0,0,0-.667-.667H26.333a.667.667,0,0,0-.667.667v1.333h8.667Z" transform="translate(-14 -15.333)" fill="#fff"/>
</svg>
