<svg xmlns="http://www.w3.org/2000/svg" width="36" height="36" viewBox="0 0 36 36">
  <g id="Group_880" data-name="Group 880" transform="translate(-772 -196)">
    <circle id="Ellipse_46" data-name="Ellipse 46" cx="18" cy="18" r="18" transform="translate(772 196)" fill="red"/>
    <g id="Group_879" data-name="Group 879" transform="translate(790.032 229.01) rotate(-135)">
      <path id="Path_146" data-name="Path 146" d="M20.769,8.473a6.42,6.42,0,0,0-1.506-7.135c-.416-.4-.725-.692-.725-.692a2.2,2.2,0,0,0-3.119,0L14.066,2a2.2,2.2,0,0,0,0,3.119l.441.441a4.084,4.084,0,0,1,1.045,4.047,8.859,8.859,0,0,1-5.827,5.711A4.107,4.107,0,0,1,5.6,14.5l-.477-.43a2.206,2.206,0,0,0-3.119,0L.646,15.42a2.2,2.2,0,0,0,0,3.119l.728.729a6.447,6.447,0,0,0,7.219,1.346,26.533,26.533,0,0,0,7.343-5.343A22.8,22.8,0,0,0,20.769,8.473Z" fill="none" stroke="#fff" stroke-linecap="round" stroke-linejoin="round" stroke-width="2"/>
      <line id="Line_27" data-name="Line 27" x1="4.136" y2="4.136" transform="translate(1.888 15.27)" fill="none" stroke="#fff" stroke-linecap="round" stroke-linejoin="round" stroke-width="2"/>
      <line id="Line_28" data-name="Line 28" x1="4.136" y2="4.136" transform="translate(15.027 1.644)" fill="none" stroke="#fff" stroke-linecap="round" stroke-linejoin="round" stroke-width="2"/>
    </g>
  </g>
</svg>
