<svg xmlns="http://www.w3.org/2000/svg" width="36" height="36" viewBox="0 0 36 36">
  <g id="Group_895" data-name="Group 895" transform="translate(-312 -448)">
    <g id="Group_913" data-name="Group 913">
      <circle id="Ellipse_55" data-name="Ellipse 55" cx="18" cy="18" r="18" transform="translate(312 448)" fill="#fff"/>
      <path id="Path_164" data-name="Path 164" d="M33.917,9.587a18.055,18.055,0,0,0-3.128-4.254l-.121-.121A17.967,17.967,0,0,0,18,0,17.985,17.985,0,0,0,0,18a18.191,18.191,0,0,0,.1,1.9A17.931,17.931,0,0,0,4.652,30.077q.275.3.562.593l.121.121A18,18,0,0,0,35.961,19.2C35.987,18.8,36,18.4,36,18A18.036,18.036,0,0,0,33.917,9.587ZM8.833,25.64a12.034,12.034,0,0,1-.9-1.231.12.12,0,0,0-.165-.038l-.081.051A12.154,12.154,0,0,1,18,5.846h.028a12.108,12.108,0,0,1,6.143,1.7l-.053.091a.12.12,0,0,0,.043.164,10.709,10.709,0,0,1,1.248.869.12.12,0,0,0,.169-.017l.068-.083a12.116,12.116,0,0,1,4.033,6.057.3.3,0,0,0,.29.22h3.612a.544.544,0,0,0,.339-.119l.961-.769q.055.231.1.464l-1.022.849a.423.423,0,0,1-.269.1H29.475a.18.18,0,0,1-.175-.137,11.681,11.681,0,0,0-3.09-5.469l.046-.044a.121.121,0,0,0,0-.171,10.656,10.656,0,0,0-1.215-1.061.121.121,0,0,0-.169.026l-.05.068a11.574,11.574,0,0,0-6.8-2.212H18A11.665,11.665,0,0,0,7.185,13.706l-.091-.036a.121.121,0,0,0-.157.068,11.808,11.808,0,0,0-.475,1.537.121.121,0,0,0,.091.145l.1.022a11.707,11.707,0,0,0-.282,2.51,11.608,11.608,0,0,0,11.62,11.68H18a11.625,11.625,0,0,0,11.435-9.5.18.18,0,0,1,.177-.147h4.166a.422.422,0,0,1,.274.1l1.048.9q-.04.231-.086.46l-.975-.81a.544.544,0,0,0-.346-.125H30.135a.3.3,0,0,0-.293.232,12.149,12.149,0,0,1-21.1,5.127l.072-.062A.12.12,0,0,0,8.833,25.64Zm26.524-7.7H28.93a.261.261,0,0,1,0-.522h2.892v.141a.121.121,0,0,0,.121.121h1.366a.121.121,0,0,0,.121-.121v-.141h1.918Q35.356,17.678,35.357,17.94ZM33.429,17.3v-.141a.121.121,0,0,0-.121-.121H31.942a.121.121,0,0,0-.121.121V17.3H28.93a.382.382,0,0,0,0,.763h6.427c0,.368-.014.735-.037,1.094q-.016.246-.039.489l-1.044-.924a.542.542,0,0,0-.359-.136h-.769v-.141a.121.121,0,0,0-.121-.121H31.621a.121.121,0,0,0-.121.121v.141H28.489a.3.3,0,0,0-.3.276,10.124,10.124,0,0,1-2.174,5.464l-.066-.052a.121.121,0,0,0-.169.019,10.1,10.1,0,0,1-1.041,1.1.121.121,0,0,0-.009.169l.054.061A10.2,10.2,0,0,1,7.775,18a10.1,10.1,0,0,1,2.053-6.115l.066.049a.121.121,0,0,0,.168-.024,10.1,10.1,0,0,1,1.013-1.13.121.121,0,0,0,.005-.17l-.054-.058A10.134,10.134,0,0,1,18,7.775h.1a10.261,10.261,0,0,1,7.565,3.484l-.11.09a.121.121,0,0,0-.017.169,8.76,8.76,0,0,1,.837,1.257.121.121,0,0,0,.162.049l.2-.108a10.053,10.053,0,0,1,1.376,3.8.3.3,0,0,0,.3.257H33.84a.542.542,0,0,0,.357-.134l1.014-.886q.1.767.132,1.542Zm.689-.747a.422.422,0,0,1-.278.1H28.416a.181.181,0,0,1-.179-.154,10.3,10.3,0,0,0-1.383-3.851.12.12,0,0,0,.018-.139,9.31,9.31,0,0,0-.9-1.347.121.121,0,0,0-.17-.017l-.033.027A10.335,10.335,0,0,0,18.1,7.655a10.163,10.163,0,0,0-4.043.79,10.39,10.39,0,0,0-3.115,2.02l-.083-.089a.121.121,0,0,0-.171-.005,10.662,10.662,0,0,0-1.076,1.2.121.121,0,0,0,.024.17l.1.071a10.364,10.364,0,0,0-1.249,2.154A10.169,10.169,0,0,0,7.654,18a10.345,10.345,0,0,0,17.223,7.729l.067.075a.12.12,0,0,0,.171.009,10.654,10.654,0,0,0,1.106-1.173.12.12,0,0,0-.019-.17l-.079-.062a10.3,10.3,0,0,0,2.186-5.539.181.181,0,0,1,.18-.165H31.5v.141a.121.121,0,0,0,.121.121h1.366a.121.121,0,0,0,.121-.121V18.7h.769a.421.421,0,0,1,.28.106l1.11.982q-.024.229-.053.456L34.2,19.359a.542.542,0,0,0-.357-.134H29.065a.3.3,0,0,0-.3.26,10.732,10.732,0,0,1-.84,2.937l-.089-.04a.12.12,0,0,0-.159.06,10.657,10.657,0,0,1-.733,1.333.12.12,0,0,0,.034.166l.079.052a10.851,10.851,0,0,1-16.332,2.074L10.791,26a.12.12,0,0,0-.008-.169A10.741,10.741,0,0,1,9.741,24.72a.12.12,0,0,0-.169-.019L9.5,24.76a10.813,10.813,0,0,1-2.366-6.746,10.545,10.545,0,0,1,.975-4.428l.058.026a.12.12,0,0,0,.159-.06,10.664,10.664,0,0,1,.734-1.333.12.12,0,0,0-.034-.166l-.039-.026a10.969,10.969,0,0,1,8.946-4.9H18a10.866,10.866,0,0,1,7.26,2.78l-.087.094a.121.121,0,0,0,.006.17A9.451,9.451,0,0,1,26.187,11.3a.121.121,0,0,0,.168.025l.144-.106a10.8,10.8,0,0,1,2.165,4.668.3.3,0,0,0,.3.242h3.184v.141a.121.121,0,0,0,.121.121h1.366a.121.121,0,0,0,.121-.121v-.141h.029a.543.543,0,0,0,.352-.13l.991-.847q.038.228.07.457Zm-.064-.64a.422.422,0,0,1-.274.1H33.75v-.141a.121.121,0,0,0-.121-.121H32.263a.121.121,0,0,0-.121.121v.141H28.959a.18.18,0,0,1-.177-.144A10.919,10.919,0,0,0,26.6,11.151l.018-.013a.121.121,0,0,0,.025-.169,10.014,10.014,0,0,0-1.077-1.2.121.121,0,0,0-.171.006l-.05.054A10.986,10.986,0,0,0,18,7.011H17.93a10.711,10.711,0,0,0-4.226.9,11.126,11.126,0,0,0-3.475,2.381A11.254,11.254,0,0,0,8.867,11.95l-.112-.074a.121.121,0,0,0-.168.034,11.224,11.224,0,0,0-.777,1.411.121.121,0,0,0,.061.16l.113.051q-.057.124-.11.25a10.718,10.718,0,0,0-.863,4.233A10.906,10.906,0,0,0,9.4,24.84L9.32,24.9a.121.121,0,0,0-.019.17,11.312,11.312,0,0,0,1.1,1.173.121.121,0,0,0,.171-.008l.067-.074a10.989,10.989,0,0,0,14.611.093,11.029,11.029,0,0,0,1.911-2.191l.084.056a.12.12,0,0,0,.168-.034,11.222,11.222,0,0,0,.776-1.411.121.121,0,0,0-.061-.16l-.093-.041a10.922,10.922,0,0,0,.848-2.971.181.181,0,0,1,.179-.155H33.84a.422.422,0,0,1,.278.1l1.076.94q-.032.23-.069.457L34.131,20a.543.543,0,0,0-.352-.13H29.613a.3.3,0,0,0-.3.245A11.5,11.5,0,0,1,18,29.511h-.012A11.512,11.512,0,0,1,6.77,15.468l.1.022a.12.12,0,0,0,.144-.09,11.234,11.234,0,0,1,.45-1.456.12.12,0,0,0-.068-.155L7.3,13.752A11.536,11.536,0,0,1,18,6.489h.026a11.5,11.5,0,0,1,6.733,2.182l-.074.1a.121.121,0,0,0,.026.168,10.1,10.1,0,0,1,1.143,1,.121.121,0,0,0,.17,0l.107-.1a11.475,11.475,0,0,1,3.052,5.421.3.3,0,0,0,.292.229h4.217a.544.544,0,0,0,.346-.125l.973-.808q.046.229.086.46Zm-.7-6.022a17.254,17.254,0,0,1,1.5,3.941l-1,.8a.423.423,0,0,1-.264.092H29.969a.183.183,0,0,1-.174-.132A12.368,12.368,0,0,0,25.73,8.466l.052-.063a.12.12,0,0,0-.017-.17,11.28,11.28,0,0,0-1.322-.92.121.121,0,0,0-.166.044l-.04.069a12.156,12.156,0,0,0-6.211-1.7H18A12.28,12.28,0,0,0,7.577,24.49l-.083.052a.121.121,0,0,0-.038.167A12.593,12.593,0,0,0,8.4,26a.121.121,0,0,0,.171.014l.076-.065q.319.374.671.727a12.261,12.261,0,0,0,16.373.885A12.326,12.326,0,0,0,29.96,20.77a.179.179,0,0,1,.176-.139h3.557a.423.423,0,0,1,.269.1l1.025.851q-.049.233-.1.464l-.963-.77a.544.544,0,0,0-.339-.119H30.4l-.012.045a12.813,12.813,0,0,1-12.324,9.6H18A12.8,12.8,0,0,1,17.992,5.2H18a12.781,12.781,0,0,1,12.14,8.741.381.381,0,0,0,.441.251.37.37,0,0,0,.249-.18.4.4,0,0,0,.03-.327q-.168-.5-.374-.986l.129-.055a.121.121,0,0,0,.064-.159,13.856,13.856,0,0,0-.725-1.431.121.121,0,0,0-.166-.043l-.12.071q-.154-.26-.32-.513l.117-.077a.121.121,0,0,0,.035-.168,13.927,13.927,0,0,0-.967-1.28.121.121,0,0,0-.171-.013l-.106.092q-.2-.229-.406-.448l.1-.1a.121.121,0,0,0,0-.171,13.956,13.956,0,0,0-1.177-1.089.121.121,0,0,0-.17.018l-.088.109q-.235-.19-.478-.369l.083-.113A.121.121,0,0,0,26.1,6.8a13.891,13.891,0,0,0-1.351-.864.121.121,0,0,0-.165.047l-.067.122q-.265-.146-.535-.279l.061-.124a.121.121,0,0,0-.055-.162,13.792,13.792,0,0,0-1.483-.61.121.121,0,0,0-.153.076l-.044.131q-.286-.1-.576-.179l.038-.133a.121.121,0,0,0-.083-.15,13.791,13.791,0,0,0-1.568-.336.121.121,0,0,0-.137.1l-.02.138q-.3-.043-.6-.073l.014-.139a.121.121,0,0,0-.109-.132c-.419-.038-.843-.057-1.265-.057h0c-.112,0-.224,0-.336,0a.12.12,0,0,0-.117.125l0,.141q-.3.01-.6.032l-.011-.14a.121.121,0,0,0-.13-.111,13.87,13.87,0,0,0-1.587.229.121.121,0,0,0-.093.143l.029.136q-.3.063-.588.139l-.035-.134a.121.121,0,0,0-.148-.086,13.764,13.764,0,0,0-1.522.509.121.121,0,0,0-.066.158l.052.126q-.28.115-.555.243l-.058-.124a.121.121,0,0,0-.161-.058,13.853,13.853,0,0,0-1.407.772.121.121,0,0,0-.037.167l.074.116q-.254.163-.5.337l-.079-.112a.121.121,0,0,0-.169-.029A13.954,13.954,0,0,0,8.708,7.768a.121.121,0,0,0-.007.171l.1.1c-.13.12-.259.243-.385.369l-.05.051-.1-.1a.121.121,0,0,0-.171,0,13.963,13.963,0,0,0-1.05,1.212.121.121,0,0,0,.023.17l.111.084q-.183.241-.354.489l-.114-.078a.121.121,0,0,0-.168.031A13.879,13.879,0,0,0,5.72,11.65a.121.121,0,0,0,.053.163l.122.062q-.137.269-.26.544l-.125-.056a.121.121,0,0,0-.16.061,13.788,13.788,0,0,0-.561,1.5.121.121,0,0,0,.081.151L5,14.116q-.086.289-.16.583l-.134-.033a.121.121,0,0,0-.147.088,13.821,13.821,0,0,0-.284,1.578.121.121,0,0,0,.107.134l.139.016q-.033.3-.053.6l-.14-.009a.121.121,0,0,0-.129.113c-.016.27-.024.543-.024.814s.007.527.022.789a.121.121,0,0,0,.128.113l.14-.009q.02.3.052.6l-.139.015a.121.121,0,0,0-.107.134,13.844,13.844,0,0,0,.281,1.579.121.121,0,0,0,.146.089l.134-.033q.073.294.159.583l-.132.039a.121.121,0,0,0-.081.151,13.779,13.779,0,0,0,.559,1.5.121.121,0,0,0,.16.061l.125-.056q.124.276.26.547l-.122.061a.121.121,0,0,0-.053.163,13.883,13.883,0,0,0,.818,1.38.121.121,0,0,0,.168.032l.114-.078q.171.249.354.49l-.111.084a.121.121,0,0,0-.023.17,13.963,13.963,0,0,0,1.048,1.214.121.121,0,0,0,.171,0l.1-.1.062.064c.122.122.246.24.372.357l-.1.1a.121.121,0,0,0,.007.171,13.936,13.936,0,0,0,1.245,1.01.121.121,0,0,0,.169-.029l.079-.113q.247.175.5.337l-.074.116a.121.121,0,0,0,.037.167,13.842,13.842,0,0,0,1.4.773.121.121,0,0,0,.161-.058l.058-.124q.273.127.552.243l-.052.126a.121.121,0,0,0,.066.158,13.8,13.8,0,0,0,1.52.511.121.121,0,0,0,.148-.086l.035-.134q.292.076.588.14l-.029.136a.121.121,0,0,0,.093.144,13.873,13.873,0,0,0,1.587.232.121.121,0,0,0,.13-.111l.011-.14q.3.023.6.033l0,.141a.12.12,0,0,0,.117.125c.12,0,.242,0,.362,0,.413,0,.83-.018,1.24-.055a.121.121,0,0,0,.109-.132l-.014-.14q.3-.03.6-.072l.02.139a.121.121,0,0,0,.137.1,13.81,13.81,0,0,0,1.57-.333.121.121,0,0,0,.084-.149l-.038-.136q.291-.083.578-.178L22.33,31a.121.121,0,0,0,.153.076,13.791,13.791,0,0,0,1.485-.608.121.121,0,0,0,.056-.162l-.062-.126q.271-.133.537-.278l.067.123a.121.121,0,0,0,.164.048,13.907,13.907,0,0,0,1.352-.862.121.121,0,0,0,.026-.169l-.083-.113q.244-.179.479-.368l.088.109a.121.121,0,0,0,.17.018A13.956,13.956,0,0,0,27.942,27.6a.121.121,0,0,0,0-.171l-.1-.1q.208-.219.406-.448l.106.092a.121.121,0,0,0,.171-.012,13.947,13.947,0,0,0,.968-1.278.121.121,0,0,0-.034-.168l-.117-.077q.166-.252.321-.511l.12.072a.121.121,0,0,0,.166-.042,13.842,13.842,0,0,0,.727-1.429.121.121,0,0,0-.064-.159l-.37-.158a.12.12,0,0,0-.158.063,13.2,13.2,0,0,1-.689,1.356.12.12,0,0,0,.042.164l.122.073q-.153.258-.317.508l-.119-.079a.12.12,0,0,0-.166.034,13.286,13.286,0,0,1-.919,1.213.12.12,0,0,0,.012.169l.111.1q-.2.227-.4.444l-.107-.1a.12.12,0,0,0-.17,0,13.341,13.341,0,0,1-1.118,1.032.12.12,0,0,0-.018.169l.094.117q-.233.188-.475.366l-.089-.121a.12.12,0,0,0-.168-.026,13.253,13.253,0,0,1-1.283.818.12.12,0,0,0-.047.163l.072.131q-.263.144-.533.275l-.065-.133a.12.12,0,0,0-.16-.055,13.139,13.139,0,0,1-1.408.577.12.12,0,0,0-.076.152l.046.137q-.284.094-.573.176l-.039-.138a.12.12,0,0,0-.148-.083A13.16,13.16,0,0,1,20,31.028a.12.12,0,0,0-.1.136l.02.14q-.3.042-.594.071l-.014-.141a.12.12,0,0,0-.131-.108,13.511,13.511,0,0,1-1.521.048.12.12,0,0,0-.124.116l0,.14c-.2-.007-.4-.018-.6-.033l.011-.14a.12.12,0,0,0-.11-.129,13.232,13.232,0,0,1-1.505-.22.12.12,0,0,0-.142.092l-.029.136q-.293-.063-.582-.139l.035-.134a.12.12,0,0,0-.085-.147,13.128,13.128,0,0,1-1.441-.485.12.12,0,0,0-.157.065l-.052.127q-.276-.114-.546-.241l.058-.124a.12.12,0,0,0-.058-.16A13.207,13.207,0,0,1,11,29.166a.12.12,0,0,0-.166.037l-.073.115q-.252-.162-.5-.334l.078-.111a.12.12,0,0,0-.028-.167,13.294,13.294,0,0,1-1.181-.958.12.12,0,0,0-.17.007l-.091.1q-.219-.2-.43-.416l.1-.094a.12.12,0,0,0,0-.17,13.3,13.3,0,0,1-.995-1.151A.12.12,0,0,0,7.374,26l-.108.081q-.18-.239-.35-.486l.111-.076a.12.12,0,0,0,.031-.167,13.231,13.231,0,0,1-.775-1.309.12.12,0,0,0-.161-.053L6,24.049q-.135-.267-.259-.541l.125-.056a.12.12,0,0,0,.061-.159,13.145,13.145,0,0,1-.53-1.427.12.12,0,0,0-.149-.081l-.133.039q-.085-.286-.158-.577l.135-.033a.12.12,0,0,0,.088-.145,13.2,13.2,0,0,1-.267-1.5.12.12,0,0,0-.133-.106l-.139.015q-.033-.3-.052-.6l.14-.009a.12.12,0,0,0,.112-.127c-.014-.249-.021-.5-.021-.749s.007-.516.022-.773a.12.12,0,0,0-.112-.127l-.14-.009q.02-.3.053-.6l.139.016a.12.12,0,0,0,.133-.106,13.178,13.178,0,0,1,.269-1.5.12.12,0,0,0-.088-.145l-.135-.034q.073-.291.159-.577l.133.04a.12.12,0,0,0,.15-.08,13.134,13.134,0,0,1,.532-1.425.12.12,0,0,0-.06-.159l-.125-.057q.123-.272.259-.538l.122.062a.12.12,0,0,0,.161-.052,13.224,13.224,0,0,1,.776-1.307.12.12,0,0,0-.031-.167l-.111-.077q.17-.246.35-.485l.108.081a.12.12,0,0,0,.168-.023,13.317,13.317,0,0,1,1-1.15.12.12,0,0,0,0-.17l-.1-.095q.211-.213.43-.416l.091.1a.12.12,0,0,0,.17.007,13.3,13.3,0,0,1,1.183-.957.12.12,0,0,0,.029-.167l-.078-.111q.245-.172.5-.334l.073.115a.12.12,0,0,0,.166.037,13.209,13.209,0,0,1,1.334-.732.12.12,0,0,0,.058-.16l-.058-.124q.271-.126.549-.241l.052.127a.12.12,0,0,0,.156.066,13.138,13.138,0,0,1,1.443-.482.12.12,0,0,0,.085-.147L14.6,5q.289-.076.582-.138l.029.136a.12.12,0,0,0,.142.093,13.235,13.235,0,0,1,1.505-.217.12.12,0,0,0,.11-.129L16.957,4.6c.2-.015.4-.025.6-.032l0,.14a.121.121,0,0,0,.124.116c.106,0,.212,0,.317,0h0c.4,0,.8.018,1.2.054a.12.12,0,0,0,.131-.108l.014-.14q.3.03.594.073l-.02.139a.12.12,0,0,0,.1.136,13.155,13.155,0,0,1,1.487.318.12.12,0,0,0,.148-.083l.039-.135q.288.082.571.177l-.045.133a.12.12,0,0,0,.075.152,13.146,13.146,0,0,1,1.406.579.12.12,0,0,0,.161-.055l.063-.128q.269.132.531.276l-.069.125a.12.12,0,0,0,.047.163,13.245,13.245,0,0,1,1.281.82.12.12,0,0,0,.168-.026l.086-.117q.241.177.474.365l-.092.114a.12.12,0,0,0,.017.169A13.313,13.313,0,0,1,27.49,8.857a.12.12,0,0,0,.17,0l.107-.1q.206.217.4.444l-.111.1a.12.12,0,0,0-.013.169,13.292,13.292,0,0,1,.917,1.214.12.12,0,0,0,.166.034l.122-.08q.164.25.316.509l-.124.074a.12.12,0,0,0-.042.164,13.2,13.2,0,0,1,.687,1.357.12.12,0,0,0,.157.063l.13-.055q.2.478.37.977a.28.28,0,0,1-.02.228.25.25,0,0,1-.169.121.261.261,0,0,1-.3-.171A12.923,12.923,0,0,0,18,5.083h-.008A12.781,12.781,0,0,0,12.975,6.1,13.018,13.018,0,0,0,6.1,12.982,12.915,12.915,0,0,0,18,30.917h.068a12.845,12.845,0,0,0,7.923-2.779,13.032,13.032,0,0,0,4.5-6.864h3.086a.423.423,0,0,1,.264.092l1.007.805A17.354,17.354,0,0,1,.739,19.837,17.554,17.554,0,0,1,.643,18,17.358,17.358,0,0,1,33.349,9.888ZM18,8.518A9.482,9.482,0,1,0,27.482,18,9.482,9.482,0,0,0,18,8.518Zm3.688,3.375a2.089,2.089,0,0,1,2.089,2.05c0,.013,0,.026,0,.04a2.089,2.089,0,1,1-2.089-2.09Zm-7.393,0a2.089,2.089,0,0,1,2.089,2.05c0,.013,0,.026,0,.04a2.089,2.089,0,1,1-2.089-2.09Zm10.592,8.256a7,7,0,0,1-13.774,0,.133.133,0,0,1,.131-.157H24.756A.133.133,0,0,1,24.887,20.148ZM15.18,34.077l-.355-.051.263-1.85.587.084.571,1.659h.01l.191-1.551.355.051-.263,1.85-.589-.084-.567-1.658-.012,0Zm-4.9-1.7-.321-.16.834-1.672.531.265.019,1.754.009,0,.67-1.411.321.16-.834,1.672-.533-.266-.014-1.752-.011-.006Zm18.292-3.2a.461.461,0,0,1,0-.661.467.467,0,1,1,0,.661ZM13.136,33.59c.54.168.8.128.973-.443l.15-.48c.178-.573-.044-.729-.558-.889-.566-.176-.784-.137-.957.417l-.15.48C12.412,33.26,12.584,33.418,13.136,33.59Zm-.2-.808.15-.48c.1-.281.155-.346.523-.231.3.095.418.156.307.489l-.15.48c-.107.345-.228.354-.539.257C12.885,33.191,12.826,33.136,12.936,32.782Zm5.071.815-.694-1.14.409-.007.456.79h.007l.438-.8.413-.007-.671,1.162.012.717-.359.006Zm1.892.643L19.561,32.4l.566-.1.751,1.273.01,0,.239-1.455.578-.107.338,1.837-.353.065-.256-1.554-.012,0-.293,1.655-.316.058-.867-1.434h-.007l.313,1.536Zm5.157-2.11L24.4,30.973l.313-.176.652,1.157c.094.167.183.183.485.013s.344-.248.244-.424l-.652-1.157.313-.176.652,1.157c.256.454-.012.644-.407.867S25.314,32.586,25.057,32.13Zm1.536-1.863c-.315-.4-.069-.616.285-.891.3-.234.554-.416.856-.028l.037.047-.283.22-.037-.047c-.124-.159-.193-.115-.392.04-.281.219-.3.282-.182.439.141.181.183.158.483-.048.475-.326.618-.4.91-.023.323.415.154.6-.225.9-.326.254-.61.49-.939.068l-.054-.069.283-.22.054.069c.132.169.213.124.475-.079s.256-.275.123-.446c-.164-.21-.254-.1-.484.064C27.169,30.488,26.927,30.7,26.593,30.267ZM22.755,32.9c.216.574.449.592.99.389s.706-.388.5-.948l-.177-.471c-.211-.562-.483-.548-.986-.358-.555.209-.7.374-.5.917Zm.429-1.1c.3-.112.426-.134.543.2l.177.471c.127.338.038.42-.267.534-.336.126-.416.119-.546-.228l-.177-.471C22.816,32.021,22.823,31.934,23.185,31.8ZM25.1,4.277a.461.461,0,0,1,.635-.182.467.467,0,1,1-.635.182ZM11.648,3.237l.634,1.427-.328.146-.634-1.427-.5.223-.124-.28,1.329-.591.124.28ZM14.5,2.665c-.163-.578-.434-.587-.952-.441-.571.16-.732.312-.575.871l.136.484c.166.59.4.628.953.472s.736-.326.574-.9Zm-.521,1.091c-.345.1-.424.083-.525-.274L13.321,3c-.073-.287-.059-.374.313-.479.307-.086.436-.1.524.243l.136.484C14.392,3.595,14.3,3.668,13.982,3.756Zm-3.571.788a.467.467,0,0,1-.8.484.461.461,0,0,1,.156-.642A.468.468,0,0,1,10.41,4.545Zm10.664-1.09.785.188.037.372.354.084-.181-1.964-.514-.123L20.517,3.685l.361.086Zm.678-1.113h0l.087,1.017-.628-.15Zm-3.9-.749.575.033.429,1.414h.01l.576-1.357.587.033-.106,1.865-.358-.02.119-1.57H19.67l-.676,1.539-.321-.018-.5-1.6h-.007L18.1,3.478l-.358-.02Zm5.274,2.834.262-.668L23.18,2.44l.38.149.121.9.007,0,.711-.577.385.151-1.063.819-.262.668ZM16.24,2.638l.943.85-.45.054-.778-.712-.166.02.1.794-.356.043-.223-1.855.356-.043.091.757.166-.02.527-.831.438-.053ZM7.194,29.587a.467.467,0,1,1,.66-.021A.464.464,0,0,1,7.194,29.587Zm.9,1.382.3-.219.656.47-.107.359.3.212L9.81,29.9,9.381,29.6,7.789,30.753Zm1.349-.995,0,0-.3.975-.525-.376Zm22.391-5.82-.491-.431.651.06.258-.6.145.637.651.06-.562.335.144.638-.491-.431-.561.333Zm-1.311,2.352-.407-.511.63.174.36-.545.029.652.63.174-.612.229.029.653-.407-.511-.612.228ZM4.561,11.032l.465.46-.646-.1-.293.584-.106-.644-.646-.1.581-.3-.106-.645.465.459.58-.3ZM4.109,24.018l.65-.071-.484.439.268.6-.567-.324-.484.439.133-.64-.568-.325.65-.071.134-.639Zm.273,2.664.627-.185.018-.653.369.539.627-.185-.4.518.369.539-.616-.218-.4.518L5,26.9ZM7.589,6.488l.648-.083-.475.448.28.591-.574-.313-.475.448.12-.642-.573-.313.649-.084L7.309,5.9ZM6.369,8.279l-.39.524.378.533-.619-.21-.39.524L5.355,9l-.619-.21.624-.195.008-.654.378.533ZM3.517,22.486l-.5-.42-.555.346.246-.606-.5-.421.652.046.246-.6.157.634.652.046-.555.346Zm27.475-12.3.586.287.455-.469-.093.647.587.288-.644.112-.093.646-.3-.578-.644.112.455-.469ZM29.8,8.527l-.4-.515.628.179.365-.542.023.654.629.18-.614.224.022.653-.4-.515-.614.224ZM27.942,6.588l-.487-.436.65.066.264-.6.138.639.651.067-.565.328.137.638-.487-.436-.565.328Zm-25.562,7.3.519-.4-.217-.617.538.371.519-.4-.187.626.538.371-.653.016-.186.626-.218-.616ZM1.9,16.725l.44-.483-.324-.568.6.269.44-.482-.072.649.6.269-.64.132-.072.649-.324-.567Zm.028,2.864.349-.553-.418-.5.633.161.349-.552.042.652.633.161-.607.242.042.652-.418-.5Z" transform="translate(312 448)" fill="#fff"/>
    </g>
  </g>
</svg>
