<svg id="hide" xmlns="http://www.w3.org/2000/svg" width="36" height="36" viewBox="0 0 36 36">
  <rect id="Rectangle_67" data-name="Rectangle 67" width="36" height="36" fill="rgba(255,255,255,0)"/>
  <g id="Group_878" data-name="Group 878" transform="translate(4.516 8.798)">
    <g id="Group_877" data-name="Group 877" transform="translate(0 0)">
      <path id="Path_144" data-name="Path 144" d="M39.1,1187.926a25.19,25.19,0,0,1-3.968,3.643c-2.452,1.822-5.839,3.644-9.581,3.644s-7.129-1.822-9.581-3.644A25.19,25.19,0,0,1,12,1187.926a25.187,25.187,0,0,1,3.968-3.643c2.452-1.822,5.839-3.644,9.581-3.644s7.129,1.822,9.581,3.644" transform="translate(-12 -1178.658)" fill="none" stroke="#fff" stroke-linecap="round" stroke-linejoin="round" stroke-width="2"/>
      <path id="Path_145" data-name="Path 145" d="M35.042,1191.919a4.877,4.877,0,1,1,1.428,3.448" transform="translate(-26.37 -1182.651)" fill="none" stroke="#fff" stroke-linecap="round" stroke-linejoin="round" stroke-width="2"/>
      <line id="Line_26" data-name="Line 26" x2="18.535" y2="18.535" transform="translate(4.281)" fill="none" stroke="#fff" stroke-linecap="round" stroke-linejoin="round" stroke-width="2"/>
    </g>
  </g>
</svg>
