<svg xmlns="http://www.w3.org/2000/svg" width="40" height="40" viewBox="0 0 40 40">
  <g id="Group_835" data-name="Group 835" transform="translate(240 120)">
    <circle id="Ellipse_24" data-name="Ellipse 24" cx="20" cy="20" r="20" transform="translate(-240 -120)" fill="rgba(255,255,255,0)"/>
    <path id="Path_38" data-name="Path 38" d="M-201.75-81.5l-5,2.917v-5.833Zm-.833-4.167-1.584-1.9a1.666,1.666,0,0,0-1.28-.6H-213v10.833a1.667,1.667,0,0,0,1.667,1.667h14.167a1.667,1.667,0,0,0,1.667-1.667v-8.333Zm5.417,0V-89l-5-5H-210.5a.833.833,0,0,0-.833.833v5m9.167-5.417V-89h5m-12.083-1.667h3.75" transform="translate(-15.75 -15.167)" fill="none" stroke="#253447" stroke-linecap="round" stroke-linejoin="round" stroke-width="1"/>
  </g>
</svg>
