<svg xmlns="http://www.w3.org/2000/svg" width="40" height="40" viewBox="0 0 40 40">
  <g id="Group_840" data-name="Group 840" transform="translate(-120)">
    <circle id="Ellipse_29" data-name="Ellipse 29" cx="20" cy="20" r="20" transform="translate(120)" fill="rgba(255,255,255,0)"/>
    <path id="Path_43" data-name="Path 43" d="M159.833,39.083h0a4.167,4.167,0,0,1-4.167-4.167v-6.25a4.167,4.167,0,0,1,4.167-4.167h0A4.167,4.167,0,0,1,164,28.667v6.25A4.167,4.167,0,0,1,159.833,39.083ZM154,32v2.917a5.833,5.833,0,0,0,5.833,5.833h0a5.833,5.833,0,0,0,5.833-5.833V32m-7.083,12.083h2.5m-1.25-3.333v3.333m-4.167-12.5H164" transform="translate(-19.833 -14.292)" fill="none" stroke="#253447" stroke-linecap="round" stroke-linejoin="round" stroke-width="1"/>
  </g>
</svg>
