<svg xmlns="http://www.w3.org/2000/svg" width="64" height="15.628" viewBox="0 0 64 15.628">
  <g id="Group_53" data-name="Group 53" transform="translate(0)">
    <path id="Path_14" data-name="Path 14" d="M52.176,6.749H48.634a.492.492,0,0,0-.486.415l-1.432,9.082a.3.3,0,0,0,.245.337.272.272,0,0,0,.046,0h1.818a.344.344,0,0,0,.34-.291l.407-2.574a.492.492,0,0,1,.486-.416h1.121a3.638,3.638,0,0,0,4.032-3.366,2.726,2.726,0,0,0-.452-2.286A3.283,3.283,0,0,0,52.176,6.749Zm.409,3.317c-.193,1.271-1.164,1.271-2.1,1.271h-.534l.375-2.373a.3.3,0,0,1,.291-.249h.245c.639,0,1.243,0,1.555.365A1.18,1.18,0,0,1,52.584,10.065Zm10.177-.041H61.067a.294.294,0,0,0-.291.249l-.075.474-.119-.172a2.413,2.413,0,0,0-2-.711,3.9,3.9,0,0,0-3.786,3.411,3.2,3.2,0,0,0,.631,2.605,2.655,2.655,0,0,0,2.136.863,3.245,3.245,0,0,0,2.347-.971l-.076.471a.3.3,0,0,0,.245.338.285.285,0,0,0,.047,0h1.527a.492.492,0,0,0,.486-.416l.917-5.8a.3.3,0,0,0-.247-.337A.27.27,0,0,0,62.762,10.024Zm-2.364,3.3a1.889,1.889,0,0,1-1.913,1.619,1.314,1.314,0,0,1-1.4-1.649,1.9,1.9,0,0,1,1.9-1.632,1.431,1.431,0,0,1,1.131.462A1.461,1.461,0,0,1,60.4,13.325ZM64.761,7l-1.454,9.248a.3.3,0,0,0,.245.337.272.272,0,0,0,.046,0H65.06a.491.491,0,0,0,.486-.416L66.98,7.089a.3.3,0,0,0-.245-.338.27.27,0,0,0-.046,0H65.052A.3.3,0,0,0,64.761,7Zm-49.842.226q-.022.139-.05.285c-.641,3.289-2.832,4.425-5.631,4.425H7.813a.692.692,0,0,0-.684.586L6.4,17.148l-.207,1.312a.364.364,0,0,0,.3.417.352.352,0,0,0,.057,0H9.08a.608.608,0,0,0,.6-.513l.025-.128.476-3.02.031-.166a.608.608,0,0,1,.6-.514h.378c2.449,0,4.366-.994,4.926-3.872a3.3,3.3,0,0,0-.506-2.911A2.411,2.411,0,0,0,14.919,7.224Z" transform="translate(-2.984 -3.254)" fill="#179bd7"/>
    <path id="Path_15" data-name="Path 15" d="M15.125,6.937A5.125,5.125,0,0,0,14.5,6.8a7.911,7.911,0,0,0-1.256-.092H9.438a.607.607,0,0,0-.6.514l-.81,5.13-.023.15a.692.692,0,0,1,.684-.586h1.425c2.8,0,4.991-1.137,5.631-4.425.019-.1.035-.192.05-.285a3.407,3.407,0,0,0-.527-.222Z" transform="translate(-3.86 -3.234)" fill="#222d65"/>
    <path id="Path_16" data-name="Path 16" d="M23.931,3.5H20.389a.492.492,0,0,0-.486.415L18.47,12.992a.3.3,0,0,0,.246.337.277.277,0,0,0,.046,0h1.691a.492.492,0,0,0,.486-.416l.386-2.449a.492.492,0,0,1,.486-.416h1.121a3.637,3.637,0,0,0,4.031-3.366A2.728,2.728,0,0,0,26.512,4.4,3.286,3.286,0,0,0,23.931,3.5Zm.409,3.317c-.194,1.271-1.165,1.271-2.1,1.271H21.7l.375-2.373a.3.3,0,0,1,.292-.249h.245c.64,0,1.243,0,1.555.365A1.18,1.18,0,0,1,24.339,6.812Zm10.178-.041h-1.7a.3.3,0,0,0-.292.249l-.075.474-.119-.172a2.414,2.414,0,0,0-2-.711,3.9,3.9,0,0,0-3.787,3.411,3.2,3.2,0,0,0,.632,2.605,2.654,2.654,0,0,0,2.136.863,3.245,3.245,0,0,0,2.347-.971l-.076.471a.3.3,0,0,0,.245.338.272.272,0,0,0,.046,0H33.4a.492.492,0,0,0,.486-.416l.917-5.8a.294.294,0,0,0-.244-.337A.283.283,0,0,0,34.517,6.771Zm-2.364,3.3a1.89,1.89,0,0,1-1.913,1.619,1.314,1.314,0,0,1-1.4-1.649,1.9,1.9,0,0,1,1.9-1.632,1.431,1.431,0,0,1,1.131.462A1.468,1.468,0,0,1,32.153,10.072Zm11.4-3.3h-1.7a.494.494,0,0,0-.408.216l-2.351,3.462-1-3.327a.494.494,0,0,0-.472-.351H35.944a.3.3,0,0,0-.3.294.3.3,0,0,0,.016.1l1.877,5.509-1.765,2.491a.3.3,0,0,0,.241.466h1.7a.492.492,0,0,0,.4-.211l5.668-8.182a.3.3,0,0,0-.242-.463ZM4.979,3.987a.605.605,0,0,1,.6-.513H9.386a7.915,7.915,0,0,1,1.256.092,5.068,5.068,0,0,1,.767.183,3.466,3.466,0,0,1,.527.222,3.106,3.106,0,0,0-.659-2.792C10.553.353,9.245,0,7.572,0H2.715a.694.694,0,0,0-.686.587L.005,13.411a.417.417,0,0,0,.347.477.385.385,0,0,0,.065.005h3l.753-4.777Z" transform="translate(0)" fill="#253b80"/>
  </g>
</svg>
