<svg xmlns="http://www.w3.org/2000/svg" width="32" height="32" viewBox="0 0 32 32">
  <path id="Path_13" data-name="Path 13" d="M471.208,567.545a.46.46,0,0,1-.1.646c-.132.1-.268.191-.407.279a.462.462,0,1,1-.5-.777q.183-.118.357-.245A.464.464,0,0,1,471.208,567.545Zm-2.569.893c-.138.045-.277.087-.417.124a.461.461,0,0,0,.118.908.487.487,0,0,0,.12-.015c.159-.042.316-.09.471-.14a.462.462,0,1,0-.292-.877Zm3.445-2.522q-.128.176-.267.344a.463.463,0,0,0,.718.584c.1-.126.2-.255.3-.388a.463.463,0,0,0-.752-.54Zm1.778-4.514a.462.462,0,0,0-.464.462q0,.219-.014.433a.462.462,0,0,0,.435.489h.029a.463.463,0,0,0,.463-.433c.01-.162.015-.326.015-.49A.463.463,0,0,0,473.862,561.4Zm-.215,2.293a.466.466,0,0,0-.584.3c-.045.137-.093.273-.146.407a.463.463,0,0,0,.862.34q.091-.23.167-.464A.462.462,0,0,0,473.647,563.7Zm-8.854-12.355a.465.465,0,0,0-.656,0,.46.46,0,0,0,0,.653l2.042,2.033a7.846,7.846,0,0,0,.263,15.688h.065a.462.462,0,1,0,0-.923h-.066a6.925,6.925,0,0,1-.112-13.849l-2.192,2.182a.463.463,0,0,0,.656.653l2.9-2.892a.461.461,0,0,0,0-.653Zm1.649-5.953A15.072,15.072,0,1,1,451.37,560.46a15.09,15.09,0,0,1,15.072-15.073m0-.927a16,16,0,1,0,16,16,16,16,0,0,0-16-16Z" transform="translate(-450.442 -544.46)" fill="#253447"/>
</svg>
