<svg id="Group_7" data-name="Group 7" xmlns="http://www.w3.org/2000/svg" width="24" height="24" viewBox="0 0 24 24">
  <path id="Path_4" data-name="Path 4" d="M192.5,292.5h24v24h-24Z" transform="translate(-192.5 -292.5)" fill="none" fill-rule="evenodd"/>
  <path id="Path_5" data-name="Path 5" d="M222.43,324.243a.308.308,0,0,1-.217-.089.3.3,0,0,1,0-.427l5.4-5.319-5.4-5.318a.3.3,0,0,1,0-.427.309.309,0,0,1,.433,0l5.615,5.532a.3.3,0,0,1,0,.427l-5.615,5.532A.309.309,0,0,1,222.43,324.243Z" transform="translate(-213.237 -306.553)" fill="#253447"/>
</svg>
