<svg xmlns="http://www.w3.org/2000/svg" width="48" height="48" viewBox="0 0 48 48">
  <g id="Group_32" data-name="Group 32" transform="translate(-524.4 -524.1)">
    <circle id="Ellipse_4" data-name="Ellipse 4" cx="24" cy="24" r="24" transform="translate(524.4 524.1)" fill="none"/>
    <path id="Path_12" data-name="Path 12" d="M545.4,556.012h-2.08a1.041,1.041,0,0,1-1.039-1.04v-1.8a9.183,9.183,0,0,1-2.89-1.19l-1.279,1.266a1.042,1.042,0,0,1-1.471,0l-1.471-1.471a1.042,1.042,0,0,1,0-1.471l1.273-1.273a9.2,9.2,0,0,1-1.2-2.886l-1.8-.01a1.041,1.041,0,0,1-1.04-1.039v-2.08a1.041,1.041,0,0,1,1.04-1.039h1.8a9.185,9.185,0,0,1,1.19-2.89l-1.266-1.279a1.042,1.042,0,0,1,0-1.471l1.471-1.469a1.039,1.039,0,0,1,1.471,0l1.273,1.272a9.23,9.23,0,0,1,2.887-1.2l.009-1.8a1.041,1.041,0,0,1,1.039-1.04h2.08a1.041,1.041,0,0,1,1.039,1.04v1.8a9.23,9.23,0,0,1,2.89,1.191l1.279-1.266a1.039,1.039,0,0,1,1.471,0l1.471,1.469a1.045,1.045,0,0,1,0,1.471l-1.273,1.273a9.2,9.2,0,0,1,1.2,2.887l1.8.009a1.041,1.041,0,0,1,1.04,1.039v2.08a1.041,1.041,0,0,1-1.04,1.039h-1.8a9.192,9.192,0,0,1-1.188,2.89l1.266,1.279a1.045,1.045,0,0,1,0,1.471l-1.471,1.471a1.042,1.042,0,0,1-1.471,0l-1.273-1.273a9.154,9.154,0,0,1-2.887,1.2l-.009,1.8A1.041,1.041,0,0,1,545.4,556.012Zm-6.021-5.077a1.06,1.06,0,0,1,.563.163,8.239,8.239,0,0,0,2.56,1.058,1.04,1.04,0,0,1,.818,1.013v1.8h2.08v-1.8a1.04,1.04,0,0,1,.817-1.013,8.247,8.247,0,0,0,2.559-1.057,1.04,1.04,0,0,1,1.294.137l1.273,1.273,1.471-1.471-1.273-1.273a1.038,1.038,0,0,1-.138-1.294,8.26,8.26,0,0,0,1.057-2.557,1.039,1.039,0,0,1,1.012-.819h1.8v-2.08h-1.8a1.039,1.039,0,0,1-1.012-.818,8.234,8.234,0,0,0-1.058-2.558,1.042,1.042,0,0,1,.137-1.294l1.275-1.273L551.34,535.6l-1.273,1.273a1.04,1.04,0,0,1-1.294.139,8.248,8.248,0,0,0-2.559-1.058,1.039,1.039,0,0,1-.817-1.013v-1.8h-2.08v1.8a1.039,1.039,0,0,1-.818,1.013,8.271,8.271,0,0,0-2.56,1.058,1.039,1.039,0,0,1-1.293-.137l-1.273-1.275-1.471,1.471,1.273,1.273a1.039,1.039,0,0,1,.138,1.294,8.284,8.284,0,0,0-1.058,2.558,1.036,1.036,0,0,1-1.012.818h-1.8v2.08h1.8a1.038,1.038,0,0,1,1.013.819,8.254,8.254,0,0,0,1.057,2.557,1.039,1.039,0,0,1-.138,1.294L535.9,551.04l1.471,1.471,1.273-1.273A1.028,1.028,0,0,1,539.375,550.935Zm4.981-2.2a4.678,4.678,0,1,1,4.678-4.678A4.683,4.683,0,0,1,544.356,548.734Zm0-8.317a3.639,3.639,0,1,0,3.639,3.639A3.644,3.644,0,0,0,544.356,540.417Z" transform="translate(4.044 4.044)" fill="#fff"/>
  </g>
</svg>
