<svg xmlns="http://www.w3.org/2000/svg" width="104" height="104" viewBox="0 0 104 104">
  <path id="Path_166" data-name="Path 166" d="M102.032,37.783A52.026,52.026,0,0,0,4.087,31.759,51.676,51.676,0,0,0,0,52a52.462,52.462,0,0,0,.288,5.5,52.021,52.021,0,0,0,40.169,45.209c.22.051.448.1.677.15A52.06,52.06,0,0,0,98.9,74.477a51.554,51.554,0,0,0,4.983-19.022c.075-1.137.113-2.3.113-3.455A52.06,52.06,0,0,0,102.032,37.783Zm.837,17.6a51.022,51.022,0,0,1-61.524,46.476q-.33-.069-.659-.146A51.02,51.02,0,1,1,102.98,52Q102.98,53.707,102.869,55.388ZM17.258,22.614l-1.786-1.832,6.253-6.1,1.786,1.832L21.385,18.59,27.3,24.653l-2.105,2.053-5.913-6.063Zm10.66-3.921c1.636,2.977,3.8,2.524,6.419,1.087s4.16-3.024,2.525-6l-1.5-2.732c-1.636-2.977-3.8-2.524-6.419-1.087s-4.16,3.024-2.525,6Zm2.255-6.49c1.34-.736,1.895-.857,2.681.574l1.2,2.178c.793,1.443.394,1.847-.946,2.583s-1.856.835-2.688-.587l-1.2-2.178C28.473,13.321,28.833,12.939,30.173,12.2Zm9.648,4.73L37.529,6.145l2.877-.611.862,4.056.863-.183,1.914-4.646,3.481-.739-2.673,6.1,5.281,4.621-3.567.758-3.9-3.59-.863.183.9,4.229ZM53.546,15l-2.91-.426,1.6-10.911,4.612.675L57.922,11.5l.1.015,2.982-6.563,4.728.692-1.6,10.911-2.91-.426,1.516-8.323-.1-.015-3.989,7.961-2.517-.368L54.567,6.609,54.479,6.6Zm13.811,3.422,1.384-1.407,3.475,1.889-.4,1.94,2.636,1.432,2.32-11.29L72.842,8.856l-8.173,8.11Zm6.422-6.551.026.014-1.08,4.852-2.4-1.306Zm2.277,12.2L78.7,21.253l2.041-7.9,2.457,2.3L81.73,20.1l.075.07,4.386-1.714,2.489,2.332-7.835,2.471L78.2,26.085ZM15.847,78.993l-.278.165c-1.038.614-1.982,1.155-3.212.721a5.132,5.132,0,0,1-2.477-2.6c-1.527-2.582-2.516-4.543.952-6.593l2.455-1.452c3.139-1.856,4.59-.443,6.236,2.342,1.542,2.607,1.995,3.979-.823,5.714l-.367.217L16.791,74.9l.367-.217c.8-.59.507-1.222,0-2.083-.853-1.443-1.379-1.32-2.733-.519l-1.481.876c-1.418.838-1.924,1.223-1.026,2.742.621,1.05,1,1.512,2.11.853l.278-.165Zm9.749.215c-2.142-2.079-4.112-3.089-6.477-.652l-2.171,2.237c-2.366,2.437-1.3,4.376.845,6.455s4.112,3.089,6.477.652l2.171-2.237C28.807,83.225,27.738,81.286,25.6,79.207Zm-1.543,4.567-1.731,1.783c-1.147,1.182-1.65.919-2.747-.146s-1.343-1.529-.228-2.742l1.731-1.783c1.168-1.14,1.64-.908,2.737.157S25.189,82.6,24.053,83.774Zm13.9,3.866-3.53,6.449c-1.412,2.58-3.02,2.638-5.857,1.085-3.869-2.118-3.745-3.324-2.475-5.646l3.53-6.449,2.58,1.412-3.5,6.4c-.6,1.1.012,1.448,1.1,2.041s1.52.714,2.141-.42l3.438-6.281ZM46.5,89.694l2.875.617-2.314,10.782-4.9-1.052-1.271-8.934-.115-.025-1.6,8.317-2.875-.617L38.6,88l4.859,1.043,1.314,8.944.115.025ZM59.807,97.08c.122,1.819.316,3.6-4.526,3.929-2.8.188-4.669.254-4.912-3.355l2.817-.189c.077,1.144.5,1.234,1.933,1.138,1.379-.093,1.828-.211,1.766-1.135-.064-.954-.224-.928-1.609-.924h-.648c-2.727-.009-4.31.113-4.522-3.042s1.55-3.479,4.425-3.672c2.406-.161,4.463-.255,4.667,2.782l.031.455-2.817.189c-.076-1.13-.545-1.1-1.719-1.019-1.584.106-1.695.438-1.653,1.054.059.88.486.881,1.268.888l1.224.006C58.8,94.2,59.638,94.557,59.807,97.08Zm10.284-1.918.738,2.3-7.671,2.465-3.373-10.5,7.573-2.433.738,2.3L63.322,90.82l.616,1.918,4.48-1.439.625,1.946-4.48,1.439.657,2.044Zm8.78-5.025,1.286,2.212-6.521,3.792-5.544-9.533,2.542-1.478,4.258,7.321ZM84.85,78.6c-2.363-2.44-4.334-1.432-6.478.644s-3.216,4.014-.853,6.454l2.168,2.24c2.363,2.44,4.334,1.432,6.478-.644s3.216-4.014.853-6.454Zm-.464,6.856c-1.1,1.064-1.57,1.3-2.748.143l-1.728-1.785c-1.1-1.2-.857-1.667.242-2.731s1.6-1.326,2.737-.153l1.729,1.785C85.762,83.893,85.484,84.387,84.385,85.451Zm7.625-12.974-.1-.06c.648-2.043-.275-2.591-1.856-3.529-2.365-1.4-3.471-.605-4.806,1.56l-2.9,4.882,9.485,5.625,1.5-2.529L90.82,76.934l1.163-1.96a1.143,1.143,0,0,1,1.8-.332l1.328.788,1.5-2.529-1.91-1.132A1.838,1.838,0,0,0,92.011,72.477Zm-2.228,1.192-1.163,1.96-2.567-1.523,1.163-1.96c.5-.835.863-.907,1.71-.4C90,72.378,90.428,72.581,89.782,73.668ZM12.176,52.153a48.056,48.056,0,0,0,.559,7.924,34.638,34.638,0,0,1-1.067-7.923,37.473,37.473,0,0,1,.128-4.013,39.156,39.156,0,0,1,.561-3.98q.09-.448.19-.894l-.534-.118c.253-1.15.561-2.3.913-3.426l.54.17a35.894,35.894,0,0,1,1.287-3.389,34.54,34.54,0,0,1,4.013-6.914A47.661,47.661,0,0,0,15.219,36.7c-.433,1.111-.834,2.235-1.177,3.376l.538.169c-.337,1.075-.632,2.179-.874,3.28l-.532-.117q-.1.439-.18.881c-.26,1.293-.452,2.6-.585,3.912S12.2,50.832,12.176,52.153Zm81.848-9.84-.535.123q.152.651.284,1.305a41.269,41.269,0,0,1,.591,4.193,39.6,39.6,0,0,1,.137,4.229c-.025,1.245-.11,2.489-.255,3.724l.693.063c-.107,1.172-.263,2.354-.465,3.511l-.8-.14q-.13.6-.281,1.194c.063-.4.119-.808.172-1.213l-.8-.14c.194-1.11.344-2.244.446-3.369l.689.063c.078-1.231.113-2.463.1-3.694-.025-1.393-.094-2.785-.243-4.169s-.343-2.762-.617-4.126q-.124-.646-.271-1.287l-.532.122c-.253-1.1-.554-2.2-.9-3.278l.539-.172c-.35-1.143-.755-2.27-1.191-3.385a49.86,49.86,0,0,0-3.75-7.488,36.606,36.606,0,0,1,4.219,7.293c.49,1.109.915,2.246,1.3,3.4l.541-.172C93.446,40.017,93.76,41.166,94.024,42.313ZM10.006,52.161a50.166,50.166,0,0,0,.6,8.353A36.78,36.78,0,0,1,9.5,52.163a39.653,39.653,0,0,1,.137-4.229,41.351,41.351,0,0,1,.592-4.193c.258-1.281.571-2.551.949-3.8l-.537-.158c.333-1.128.717-2.256,1.142-3.353l.557.216q.2-.489.41-.972a36.668,36.668,0,0,1,4.218-7.293,49.754,49.754,0,0,0-3.751,7.488q-.19.485-.371.973l.555.215c-.408,1.053-.776,2.135-1.1,3.217l-.534-.157c-.356,1.237-.662,2.489-.9,3.753-.273,1.364-.476,2.742-.616,4.126S10.032,50.768,10.006,52.161Zm4.339-.017a45.958,45.958,0,0,0,.515,7.5,32.509,32.509,0,0,1-1.023-7.494,35.267,35.267,0,0,1,.118-3.8A34.842,34.842,0,0,1,15.422,40.9a34.562,34.562,0,0,1,1.334-3.558A32.416,32.416,0,0,1,20.565,30.8a45.58,45.58,0,0,0-3.342,6.729c-.453,1.165-.868,2.343-1.213,3.542s-.653,2.408-.887,3.633-.427,2.458-.554,3.7S14.371,50.9,14.345,52.145Zm74.795,7.5a45.877,45.877,0,0,0,.516-7.5c-.025-1.249-.088-2.5-.224-3.738s-.308-2.476-.555-3.7-.535-2.437-.888-3.633-.761-2.377-1.213-3.542A45.686,45.686,0,0,0,83.435,30.8a32.365,32.365,0,0,1,3.81,6.534A34.62,34.62,0,0,1,88.579,40.9a34.844,34.844,0,0,1,1.465,7.452,35.208,35.208,0,0,1,.118,3.8A32.554,32.554,0,0,1,89.14,59.64Zm9.543-12.12a43.96,43.96,0,0,1,.157,4.66,41.108,41.108,0,0,1-1.2,9.209,54.278,54.278,0,0,0,.692-9.211c-.024-1.537-.1-3.073-.263-4.6s-.377-3.048-.679-4.553-.66-3-1.1-4.471-.942-2.924-1.5-4.354-1.194-2.808-1.883-4.172l-.622.335c-.535-.995-1.116-1.983-1.725-2.936l.689-.44q-.3-.519-.619-1.033.359.484.7.98l.69-.441c.632.99,1.234,2.015,1.79,3.048l-.623.335A42.032,42.032,0,0,1,95.259,34a43.172,43.172,0,0,1,1.626,4.371,43.422,43.422,0,0,1,1.8,9.145Zm2.214-.213a46.278,46.278,0,0,1,.167,4.881,43.25,43.25,0,0,1-1.244,9.649,56.569,56.569,0,0,0,.737-9.651c-.024-1.611-.1-3.22-.273-4.821s-.395-3.195-.71-4.772-.692-3.143-1.149-4.686-.988-3.064-1.579-4.563a56.123,56.123,0,0,0-4.37-8.636,43.116,43.116,0,0,1,4.837,8.441,45.341,45.341,0,0,1,1.7,4.579,45.638,45.638,0,0,1,1.885,9.578Zm-8.053,1.757-.571.04c.061,1.016.086,2.034.059,3.05a34.692,34.692,0,0,1-1.066,7.923,47.953,47.953,0,0,0,.56-7.924c-.019-1-.062-2.007-.144-3.006l-.569.04c-.08-1.126-.21-2.261-.386-3.373l.54-.086q-.117-.723-.261-1.441c-.249-1.3-.566-2.577-.94-3.842S89.26,37.931,88.78,36.7a47.765,47.765,0,0,0-3.545-7.109A34.484,34.484,0,0,1,89.248,36.5a36.738,36.738,0,0,1,1.407,3.761,38.95,38.95,0,0,1,.988,3.9q.14.731.254,1.467l.542-.086C92.624,46.7,92.76,47.888,92.843,49.064ZM8.484,60.952a38.512,38.512,0,0,1-1.114-7.571l-.635.019c-.014-.464-.021-.936-.021-1.4,0-.71.017-1.429.05-2.137l.582.027q.039-1.083.13-2.163l0-.016-.558-.053c.111-1.171.27-2.351.472-3.506l.539.094q.08-.464.168-.926a43.177,43.177,0,0,1,1.094-4.314q.373-1.178.807-2.335l-.552-.2c.256-.7.534-1.407.826-2.1.166-.393.34-.789.518-1.177l.585.267a38.41,38.41,0,0,1,3.792-6.3,52.666,52.666,0,0,0-3.378,6.487l.58.265c-.17.373-.338.754-.5,1.131-.28.663-.547,1.341-.794,2.016l-.549-.2c-.27.767-.522,1.539-.749,2.32-.414,1.4-.768,2.825-1.043,4.262q-.091.455-.171.911l.536.094c-.194,1.111-.347,2.246-.454,3.372l-.556-.053,0,.016c-.076.709-.132,1.42-.172,2.132l.58.027c-.032.681-.048,1.372-.048,2.056,0,.447.007.9.02,1.348l-.633.019A52.763,52.763,0,0,0,8.484,60.952ZM3.443,52.186a56.483,56.483,0,0,0,.737,9.651,43.311,43.311,0,0,1-1.243-9.649A46.189,46.189,0,0,1,3.1,47.307a45.64,45.64,0,0,1,1.883-9.578,45.379,45.379,0,0,1,1.7-4.579,43.056,43.056,0,0,1,4.838-8.441,56.219,56.219,0,0,0-4.369,8.636c-.591,1.5-1.13,3.017-1.58,4.562s-.845,3.106-1.15,4.685-.549,3.171-.711,4.772S3.467,50.575,3.443,52.186ZM97.2,49.128c.06.95.09,1.917.09,2.872q0,.333,0,.664l-.624-.009a38.821,38.821,0,0,1-1.142,8.3,52.364,52.364,0,0,0,.652-8.3l-.622-.009q0-.319,0-.639c0-.919-.029-1.849-.086-2.764l.572-.036c-.034-.472-.075-.944-.125-1.415-.149-1.456-.36-2.905-.648-4.339s-.629-2.858-1.044-4.261c-.293-1.011-.628-2.008-.993-3l-.553.212c-.173-.451-.357-.906-.545-1.351-.252-.595-.52-1.192-.8-1.774l.59-.282a53.175,53.175,0,0,0-3.088-5.827A38.154,38.154,0,0,1,92.3,32.81l.592-.282c.289.606.568,1.227.83,1.845.2.463.387.936.567,1.406l-.555.213c.395.99.748,2,1.07,3.014a41.289,41.289,0,0,1,1.715,8.722q.059.718.1,1.437ZM7.169,61.017l-.841.168c.011.068.021.136.031.2-.017-.067-.032-.133-.049-.2l-.843.169c-.23-1.15-.419-2.324-.563-3.49l.73-.09a42.27,42.27,0,0,1-.475-5.6,44.045,44.045,0,0,1,.157-4.66,43.43,43.43,0,0,1,1.8-9.144A43.122,43.122,0,0,1,8.742,34q.117-.27.239-.539l-.574-.248c.465-1.077.976-2.151,1.521-3.191l.615.322q.528-.952,1.107-1.874L11,28.094c.52-.889,1.076-1.773,1.652-2.627q.121-.179.243-.356l1.429.984-.235.344c-.556.822-1.091,1.674-1.592,2.531l-.65-.38q-.516.952-.995,1.921l.614.322c-.524,1-1.017,2.036-1.465,3.074l-.572-.247q-.111.27-.219.54c-.563,1.43-1.076,2.88-1.5,4.354s-.806,2.964-1.1,4.471-.524,3.025-.678,4.553-.238,3.063-.262,4.6A53.007,53.007,0,0,0,5.9,57.745l.728-.09C6.765,58.779,6.948,59.91,7.169,61.017ZM52,86.667A34.667,34.667,0,1,0,17.333,52,34.667,34.667,0,0,0,52,86.667ZM18.353,52A33.656,33.656,0,1,1,75.792,75.792c-.083.083-.168.163-.251.245l-1.026-.169a8.253,8.253,0,0,1-6.284-4.88,24.9,24.9,0,1,0-8.1,4.638,14.916,14.916,0,0,0,8.505,3.034,10.89,10.89,0,0,0,6.08-1.864l.1-.066A33.635,33.635,0,0,1,18.353,52ZM67.144,71a9.247,9.247,0,0,0,5.925,5.571c-3.763,1.9-8.176,1.232-12.563-1.929l-.217-.156-.252.09A23.984,23.984,0,1,1,67.3,70.441l-.273.227Zm-4.9-28.893a4.61,4.61,0,1,0,4.61,4.61A4.616,4.616,0,0,0,62.247,42.11Zm0,8.2a3.591,3.591,0,1,1,3.591-3.591A3.595,3.595,0,0,1,62.247,50.311ZM46.364,46.721a4.61,4.61,0,1,0-4.61,4.61A4.616,4.616,0,0,0,46.364,46.721Zm-4.61,3.591a3.591,3.591,0,1,1,3.591-3.591A3.595,3.595,0,0,1,41.753,50.311ZM60.3,57.165H43.666a1.2,1.2,0,0,0-.743,2.131l7.889,6.264a1.873,1.873,0,0,0,2.339,0L61.041,59.3a1.2,1.2,0,0,0-.743-2.131Zm.109,1.333-7.889,6.264a.858.858,0,0,1-1.071,0L43.557,58.5a.175.175,0,0,1,.109-.313H60.3a.176.176,0,0,1,.109.313Z" fill="#ff59ff"/>
</svg>
