<svg xmlns="http://www.w3.org/2000/svg" width="104" height="104" viewBox="0 0 104 104">
  <path id="Path_165" data-name="Path 165" d="M99.913,31.759A52.172,52.172,0,1,0,104,52,51.815,51.815,0,0,0,99.913,31.759ZM52,102.98A50.98,50.98,0,1,1,102.98,52,50.981,50.981,0,0,1,52,102.98ZM17.256,22.615,15.47,20.783l6.253-6.1,1.786,1.832-2.126,2.074L27.3,24.654l-2.105,2.053-5.914-6.063Zm10.662-3.922c1.636,2.977,3.8,2.524,6.419,1.087s4.16-3.024,2.525-6l-1.5-2.732c-1.636-2.977-3.8-2.524-6.419-1.087s-4.16,3.024-2.524,6Zm2.256-6.49c1.34-.736,1.895-.857,2.681.574l1.2,2.178c.793,1.443.394,1.847-.946,2.583s-1.856.835-2.688-.587l-1.2-2.178C28.473,13.321,28.833,12.939,30.173,12.2Zm9.648,4.73L37.529,6.145l2.877-.611.862,4.056.863-.183,1.914-4.646,3.481-.739-2.673,6.1,5.281,4.621-3.567.758-3.9-3.59-.863.183.9,4.229ZM53.546,15l-2.91-.426,1.6-10.911,4.612.675L57.922,11.5l.1.015,2.982-6.563,4.728.692-1.6,10.911-2.91-.426,1.516-8.323-.1-.015-3.989,7.961-2.517-.368L54.567,6.609,54.479,6.6Zm13.811,3.422,1.384-1.407,3.475,1.889-.4,1.94,2.636,1.432,2.32-11.29L72.842,8.856l-8.173,8.11Zm6.422-6.551.026.014-1.08,4.852-2.4-1.306Zm2.277,12.2L78.7,21.253l2.041-7.9,2.457,2.3L81.73,20.1l.075.07,4.386-1.714,2.489,2.332-7.835,2.471L78.2,26.085Zm-46.6,65.869L31.988,91.6l-.177.271c-.659,1.01-1.267,1.913-2.562,2.067A5.131,5.131,0,0,1,25.877,92.7c-2.511-1.64-4.265-2.961-2.062-6.335l1.56-2.388c1.994-3.053,3.921-2.427,6.629-.658,2.536,1.656,3.549,2.687,1.789,5.489l-.233.357L31.024,87.51l.233-.357c.453-.881-.086-1.32-.923-1.867-1.4-.917-1.82-.574-2.681.743l-.941,1.44c-.9,1.379-1.185,1.948.293,2.913,1.022.667,1.562.915,2.27-.168Zm7.3,5.165,4.356,1.486-.826,2.422-7.139-2.435,3.56-10.437,2.783.949ZM44.918,88.6l2.907.441-1.652,10.9L43.266,99.5Zm12.734,9.089.085,2.41-8.053.284L49.3,89.361l7.95-.28.085,2.41-5.011.177.071,2.013,4.7-.166.072,2.043-4.7.166.076,2.145ZM68.978,85.614l3.477,10.465L67.7,97.66l-5.629-7.055-.112.037,2.838,7.982L62,99.552,58.526,89.086l4.716-1.567,5.671,7.041.112-.037-2.838-7.982Zm6.766-1.638,4.812,6.969-2.42,1.671-4.812-6.969L71,87.251l-1.454-2.105,7.187-4.963,1.454,2.105Zm17.4-8.308c-.56.972-1.163,1.936-1.791,2.865l-.088.129-1.435-.977.084-.123c.606-.9,1.186-1.825,1.726-2.762l.676.39q.519-.951,1-1.922l-.651-.336c.519-1.005,1.005-2.042,1.447-3.082l.619.263q.407-1,.77-2.017l-.6-.224c.392-1.06.75-2.149,1.061-3.235l.581.167a48.29,48.29,0,0,0,1.245-19.644,47.716,47.716,0,0,0-1.456-6.706,48.741,48.741,0,0,0-3.376-8.446l-.659.355c-.535-.995-1.116-1.983-1.725-2.936l.7-.448c-.207-.344-.416-.686-.631-1.025.234.326.463.656.688.989l.7-.45c.632.99,1.234,2.015,1.79,3.048l-.664.357A44.146,44.146,0,0,1,96.807,38.3a45.007,45.007,0,0,1,1.579,6.764,45.832,45.832,0,0,1,0,13.862,45.511,45.511,0,0,1-1.35,6.017l.584.168c-.324,1.128-.695,2.258-1.1,3.359l-.607-.225q-.391,1.017-.833,2.013l.624.265c-.459,1.08-.964,2.157-1.5,3.2l-.656-.338q-.518.957-1.081,1.887Zm1.59-10.607a41.657,41.657,0,0,1-5.9,11.774,47.236,47.236,0,0,0,5.415-11.922,45.858,45.858,0,0,0,1.842-12.266l-.543-.008q0-.319,0-.639c0-.919-.029-1.849-.086-2.764l.545-.034q-.113-1.867-.378-3.722a45.574,45.574,0,0,0-1.385-6.393q-.433-1.476-.966-2.92l-.607.233c-.173-.451-.357-.906-.545-1.351-.252-.595-.52-1.192-.8-1.774l.638-.3a48.278,48.278,0,0,0-3.136-5.8,41.006,41.006,0,0,1,3.425,5.667l.639-.305c.289.606.568,1.227.83,1.845.2.463.387.936.567,1.406l-.61.234q.577,1.443,1.048,2.927A42.869,42.869,0,0,1,96.24,45.39q.286,1.876.406,3.772l.55-.034c.059.95.09,1.917.09,2.872q0,.333,0,.664l-.546-.008a44.309,44.309,0,0,1-.5,5.954A42.826,42.826,0,0,1,94.73,65.061ZM101.136,52a49.077,49.077,0,0,1-.551,7.26,47.242,47.242,0,0,1-1.652,7.086,45.99,45.99,0,0,1-6.459,12.945A51.634,51.634,0,0,0,98.448,66.2a50.406,50.406,0,0,0,0-28.394,51.6,51.6,0,0,0-5.974-13.093,46.021,46.021,0,0,1,6.458,12.946,47.2,47.2,0,0,1,1.652,7.086A49.018,49.018,0,0,1,101.136,52ZM15.98,63.01A40.831,40.831,0,0,0,20.565,73.2a35.172,35.172,0,0,1-5.071-10.038,36.408,36.408,0,0,1-1.3-5.51,37.078,37.078,0,0,1,0-11.3,36.365,36.365,0,0,1,1.3-5.51A35.2,35.2,0,0,1,20.565,30.8,40.79,40.79,0,0,0,15.979,40.99a39.132,39.132,0,0,0-1.173,5.452,39.7,39.7,0,0,0,0,11.116A39.115,39.115,0,0,0,15.98,63.01Zm.68,7.646q.959,1.923,2.106,3.752a36.455,36.455,0,0,1-2.324-3.637l-.659.349c-.547-1.035-1.056-2.105-1.511-3.182l-.009-.021.622-.263a37.917,37.917,0,0,1-1.466-3.863,38.558,38.558,0,0,1-1.367-5.823,39.264,39.264,0,0,1,0-11.938q.218-1.386.53-2.755l-.57-.126c.253-1.15.561-2.3.913-3.426l.592.186a37.322,37.322,0,0,1,5.248-10.319,42.991,42.991,0,0,0-4.773,10.468l.588.185c-.337,1.075-.632,2.179-.874,3.28l-.566-.125c-.191.9-.354,1.809-.481,2.722a41.891,41.891,0,0,0,0,11.758A41.272,41.272,0,0,0,13.9,63.644q.572,1.96,1.338,3.859l.618-.261.009.021c.436,1.031.923,2.056,1.447,3.047Zm76-6.23a39.5,39.5,0,0,1-5.622,11.2,45.084,45.084,0,0,0,5.138-11.343,44.318,44.318,0,0,0,1.15-5.019l-.558-.1c.194-1.11.344-2.244.446-3.369l.548.05q.169-1.916.166-3.843a42.923,42.923,0,0,0-.439-6.2c-.151-1.084-.349-2.161-.586-3.23l-.567.13c-.253-1.1-.554-2.2-.9-3.278l.588-.187a45.212,45.212,0,0,0-4.99-10.857A39.437,39.437,0,0,1,92.5,39.085l.593-.189c.357,1.12.671,2.27.935,3.416l-.571.131q.384,1.619.641,3.267A42.454,42.454,0,0,1,94.574,52q-.006,1.953-.186,3.9l.55.05c-.107,1.172-.263,2.354-.465,3.511l-.563-.1A39.939,39.939,0,0,1,92.655,64.426ZM12.952,67.6a45.7,45.7,0,0,0,4.015,8.019,39.161,39.161,0,0,1-4.4-7.865L11.951,68c-.437-1.092-.833-2.216-1.178-3.34l.589-.181-.018-.056A40.724,40.724,0,0,1,9.906,58.29a41.455,41.455,0,0,1,0-12.579,40.955,40.955,0,0,1,1.321-5.757l-.587-.173c.333-1.128.717-2.256,1.142-3.353l.612.237a39.232,39.232,0,0,1,4.573-8.286,45.6,45.6,0,0,0-4.176,8.44l.609.236c-.408,1.053-.776,2.135-1.1,3.217l-.582-.172a43.821,43.821,0,0,0,.107,24.179l.017.055.586-.18c.331,1.079.711,2.157,1.13,3.2Zm75.553-4.445A35.2,35.2,0,0,1,83.435,73.2,40.79,40.79,0,0,0,88.021,63.01a39.132,39.132,0,0,0,1.173-5.452,39.7,39.7,0,0,0,0-11.116A39.115,39.115,0,0,0,88.02,40.99,40.833,40.833,0,0,0,83.435,30.8a35.172,35.172,0,0,1,5.071,10.038,36.407,36.407,0,0,1,1.3,5.51,37.077,37.077,0,0,1,0,11.3A36.365,36.365,0,0,1,88.505,63.158ZM85.234,74.409q1.089-1.736,2.01-3.562l-.659-.353c.533-.994,1.028-2.023,1.472-3.059l.622.267a41.227,41.227,0,0,0,2.661-9.822A40.764,40.764,0,0,0,91.754,52q0-1.427-.1-2.852l-.547.039c-.08-1.126-.21-2.261-.386-3.373l.554-.088a41.623,41.623,0,0,0-1.185-5.37,42.976,42.976,0,0,0-4.861-10.765,37.324,37.324,0,0,1,5.347,10.616,38.242,38.242,0,0,1,1.3,5.423l.559-.088c.184,1.161.319,2.346.4,3.522l-.549.039q.106,1.446.11,2.9a40.208,40.208,0,0,1-.457,5.969,38.542,38.542,0,0,1-1.368,5.823,37.947,37.947,0,0,1-1.553,4.058l.625.268c-.464,1.082-.981,2.157-1.537,3.195l-.663-.355A36.454,36.454,0,0,1,85.234,74.409Zm-75.48-9.5a47.276,47.276,0,0,0,5.414,11.922,41.627,41.627,0,0,1-5.9-11.774c-.053-.167-.1-.335-.155-.5l-.585.171C8.2,63.6,7.91,62.448,7.67,61.3l.567-.118Q7.962,59.9,7.76,58.61a44.214,44.214,0,0,1-.477-5.227l-.547.017c-.014-.464-.021-.936-.021-1.4,0-.71.017-1.429.05-2.137l.549.025q.053-1.091.158-2.179l-.552-.053c.111-1.171.27-2.351.472-3.506l.563.1a42.076,42.076,0,0,1,1.314-5.31q.36-1.136.784-2.249l-.605-.221c.256-.7.534-1.407.826-2.1.166-.393.34-.789.518-1.177l.634.29a41.113,41.113,0,0,1,3.743-6.32,48.125,48.125,0,0,0-3.43,6.463l.631.288c-.17.373-.338.754-.5,1.131-.28.663-.547,1.341-.794,2.016l-.6-.22q-.39,1.112-.722,2.243a46.475,46.475,0,0,0-1.21,5.266l.558.1c-.194,1.111-.347,2.246-.454,3.372L8.1,47.77q-.1,1.073-.147,2.149l.544.025c-.032.681-.048,1.372-.048,2.056,0,.447.007.9.02,1.348l-.543.016a45.246,45.246,0,0,0,.443,5.156q.178,1.276.436,2.54l.564-.118c.231,1.106.509,2.217.825,3.3l-.58.17C9.66,64.579,9.706,64.746,9.754,64.913ZM5.551,66.2a51.6,51.6,0,0,0,5.974,13.093A46.02,46.02,0,0,1,5.067,66.345a47.2,47.2,0,0,1-1.652-7.086,48.076,48.076,0,0,1,0-14.519,47.228,47.228,0,0,1,1.652-7.086,45.992,45.992,0,0,1,6.459-12.946A51.635,51.635,0,0,0,5.552,37.8a50.406,50.406,0,0,0,0,28.394Zm2.128-.65a49.427,49.427,0,0,0,5.69,12.5,44.227,44.227,0,0,1-7.335-16.8l-.567.113c-.23-1.15-.419-2.324-.563-3.49l.554-.068a45.686,45.686,0,0,1,.157-12.73,45.006,45.006,0,0,1,1.579-6.764,44.356,44.356,0,0,1,1.838-4.817l-.625-.27c.465-1.077.976-2.151,1.521-3.191l.657.344q.523-.954,1.1-1.879l-.682-.4c.52-.889,1.076-1.773,1.652-2.627q.121-.179.243-.356l1.429.984-.235.344c-.556.822-1.091,1.674-1.592,2.531l-.678-.4q-.524.948-1.008,1.916l.655.343c-.524,1-1.017,2.036-1.465,3.074l-.623-.269A47.721,47.721,0,0,0,6.223,45.159a48.427,48.427,0,0,0-.145,12.564l.549-.068c.139,1.124.321,2.255.543,3.362l-.561.112Q7.04,63.361,7.679,65.547ZM52,17.333A34.667,34.667,0,1,0,86.667,52,34.666,34.666,0,0,0,52,17.333ZM85.647,52A33.633,33.633,0,0,1,29.185,76.729l.1.068a10.89,10.89,0,0,0,6.081,1.864,14.913,14.913,0,0,0,8.5-3.033,25,25,0,1,0-8.1-4.638,8.252,8.252,0,0,1-6.284,4.879l-1.027.169c-.084-.082-.168-.163-.251-.245A33.656,33.656,0,1,1,85.647,52ZM36.7,70.442a23.865,23.865,0,1,1,7.261,4.137l-.252-.09-.217.157c-4.386,3.161-8.8,3.825-12.562,1.928A9.243,9.243,0,0,0,36.856,71l.118-.335Zm5.012-19.619A4.626,4.626,0,1,0,37.087,46.2,4.632,4.632,0,0,0,41.713,50.822Zm0-8.233A3.607,3.607,0,1,1,38.107,46.2,3.611,3.611,0,0,1,41.713,42.589Zm.79,22.5a1.184,1.184,0,0,0,1.131.8h16.7a1.2,1.2,0,0,0,.744-2.136l-7.92-6.289a1.88,1.88,0,0,0-2.346,0l-7.92,6.289A1.183,1.183,0,0,0,42.5,65.094Zm1.02-.534,7.92-6.289a.863.863,0,0,1,1.078,0l7.92,6.289a.178.178,0,0,1-.111.317h-16.7a.178.178,0,0,1-.111-.318ZM62.287,50.822A4.626,4.626,0,1,0,57.66,46.2,4.632,4.632,0,0,0,62.287,50.822Zm0-8.233A3.607,3.607,0,1,1,58.679,46.2,3.61,3.61,0,0,1,62.287,42.589Z" fill="#00a5ff"/>
</svg>
