<svg id="Group_839" data-name="Group 839" xmlns="http://www.w3.org/2000/svg" width="40" height="40" viewBox="0 0 40 40">
  <circle id="Ellipse_28" data-name="Ellipse 28" cx="20" cy="20" r="20" fill="rgba(255,255,255,0)"/>
  <path id="Path_42" data-name="Path 42" d="M37.667,46H27.25A1.25,1.25,0,0,1,26,44.75v-7.5A1.25,1.25,0,0,1,27.25,36H37.667a1.25,1.25,0,0,1,1.25,1.25v7.5A1.25,1.25,0,0,1,37.667,46Zm1.25-5.974v2a1.25,1.25,0,0,0,.523,1.017l1.958,1.4a1.668,1.668,0,0,0,.969.31h1.967v-7.5H42.728a1.669,1.669,0,0,0-.883.253L39.5,38.966A1.25,1.25,0,0,0,38.917,40.026Z" transform="translate(-15.167 -21)" fill="none" stroke="#253447" stroke-linecap="round" stroke-linejoin="round" stroke-width="1"/>
</svg>
