<svg id="hide" xmlns="http://www.w3.org/2000/svg" width="36" height="36" viewBox="0 0 36 36">
  <rect id="Rectangle_67" data-name="Rectangle 67" width="36" height="36" fill="rgba(255,255,255,0)"/>
  <g id="Group_876" data-name="Group 876" transform="translate(4.5 10.74)">
    <path id="Path_142" data-name="Path 142" d="M39,1187.9a25.1,25.1,0,0,1-3.954,3.63c-2.443,1.815-5.818,3.63-9.546,3.63s-7.1-1.815-9.546-3.63A25.1,25.1,0,0,1,12,1187.9a25.1,25.1,0,0,1,3.954-3.63c2.443-1.815,5.818-3.63,9.546-3.63s7.1,1.815,9.546,3.63" transform="translate(-12 -1180.639)" fill="none" stroke="#fff" stroke-linecap="round" stroke-linejoin="round" stroke-width="2"/>
    <path id="Path_143" data-name="Path 143" d="M35.042,1191.9a4.859,4.859,0,1,1,1.423,3.436" transform="translate(-26.401 -1184.641)" fill="none" stroke="#fff" stroke-linecap="round" stroke-linejoin="round" stroke-width="2"/>
  </g>
</svg>
