<svg xmlns="http://www.w3.org/2000/svg" xmlns:xlink="http://www.w3.org/1999/xlink" width="48" height="48" viewBox="0 0 48 48">
  <defs>
    <clipPath id="clip-path">
      <rect width="48" height="48" fill="none"/>
    </clipPath>
  </defs>
  <g clip-path="url(#clip-path)">
    <circle id="Ellipse_10" data-name="Ellipse 10" cx="24" cy="24" r="24" fill="none"/>
    <path id="Path_24" data-name="Path 24" d="M47.537,28.636c-.387.419-1.577,1.7-1.923,2.069-.7.751-2.048.735-3.566.1l-1.931,2.079a8.623,8.623,0,0,1-1.761,8.8L37,43.162c-1.4,1.51-4.68,0-7.581-2.427L22.9,47.75a1.042,1.042,0,0,1-1.451-.1l-.226-.209A1.043,1.043,0,0,1,21.02,46l6.522-7.02c-2.623-2.736-4.364-5.918-2.959-7.427l1.324-1.424a8.62,8.62,0,0,1,8.681-2.392l1.9-2.049c-.779-1.5-.913-2.883-.2-3.646.381-.409,1.575-1.69,1.925-2.069,1.173-1.264,4.213-.346,6.788,2.047S48.711,27.373,47.537,28.636Z" transform="translate(-10.406 -9.702)" fill="#fff"/>
  </g>
</svg>
