<svg xmlns="http://www.w3.org/2000/svg" width="36" height="36" viewBox="0 0 36 36">
  <g id="Group_902" data-name="Group 902" transform="translate(-312 -496)">
    <g id="Group_891" data-name="Group 891" transform="translate(-264 -752)">
      <circle id="Ellipse_52" data-name="Ellipse 52" cx="18" cy="18" r="18" transform="translate(576 1248)" fill="rgba(255,255,255,0)"/>
    </g>
    <g id="Group_901" data-name="Group 901" transform="translate(-262 -750.707)">
      <path id="Path_173" data-name="Path 173" d="M600.156,1282.784a3.377,3.377,0,0,1-4.618-2.168S598.406,1278.957,600.156,1282.784Zm7.658-4.591a6.556,6.556,0,0,0-.648-2.13,3.771,3.771,0,0,0-1.568,1.854A8.05,8.05,0,0,1,607.814,1278.192Zm-9.412-.276a3.772,3.772,0,0,0-1.568-1.854,6.554,6.554,0,0,0-.648,2.13A8.05,8.05,0,0,1,598.4,1277.916Zm3.6,7.3a.984.984,0,1,0,.817.97A.9.9,0,0,0,602,1285.215Zm10-3.749c0-1.446-2.086-3.146-2.98-3.443-.223-1.743-.894-2.891-1.638-3.274a6.979,6.979,0,0,0-3.073,2.232,15.763,15.763,0,0,0-4.618,0,6.979,6.979,0,0,0-3.073-2.232c-.745.383-1.415,1.53-1.638,3.274-.894.3-2.98,2-2.98,3.443s1.266,2.848,3.2,3.7a16.242,16.242,0,0,0,3.463,1.105,2.046,2.046,0,0,0,2.658,1.206,1.215,1.215,0,0,0,1.35,0,2.046,2.046,0,0,0,2.658-1.206,16.242,16.242,0,0,0,3.463-1.105C610.734,1284.314,612,1282.911,612,1281.466Zm-8.156,1.318a3.377,3.377,0,0,0,4.618-2.168S605.594,1278.957,603.844,1282.784Zm-1.162,2.589,1.706-.846m.453,1.02-1.993.212m0,.506,1.027.283m-4.261-2.021,1.706.846m-.165.387-1.993-.212m1.993.718-1.027.283" transform="translate(-10 -16.718)" fill="none" stroke="#253447" stroke-linecap="round" stroke-linejoin="round" stroke-width="1"/>
    </g>
  </g>
</svg>
