<svg id="Component_30_1" data-name="Component 30 – 1" xmlns="http://www.w3.org/2000/svg" width="36" height="36" viewBox="0 0 36 36">
  <g id="Group_890" data-name="Group 890" transform="translate(0 -96)">
    <circle id="Ellipse_51" data-name="Ellipse 51" cx="18" cy="18" r="18" transform="translate(0 96)" fill="rgba(255,255,255,0)"/>
  </g>
  <g id="Group_899" data-name="Group 899" transform="translate(-190 -94.257)">
    <g id="Group_898" data-name="Group 898" transform="translate(198 103.521)">
      <path id="Path_167" data-name="Path 167" d="M219.508,116.842l.948,2.6,2.18,1.133-2.18,1.133-.948,2.6-.948-2.6-2.18-1.133,2.18-1.133Z" transform="translate(-213.761 -116.597)" fill="none" stroke="#253447" stroke-linecap="round" stroke-linejoin="round" stroke-width="1"/>
      <path id="Path_168" data-name="Path 168" d="M217.62,125.647s1.109,6.191,6.836,7.837c5.726-1.646,6.836-7.837,6.836-7.837a28.389,28.389,0,0,0,.752-3.829c-2.541-.537-5.512-3.149-5.834-5.762" transform="translate(-214.614 -116.056)" fill="none" stroke="#253447" stroke-linecap="round" stroke-linejoin="round" stroke-width="1"/>
      <path id="Path_169" data-name="Path 169" d="M260.136,117.773s1,4.8-.215,7.552-2.97,4.9-1.789,7.551c-2.469-.108-2.824-1.767-2.824-1.767" transform="translate(-240.524 -117.236)" fill="none" stroke="#253447" stroke-linecap="round" stroke-linejoin="round" stroke-width="1"/>
      <path id="Path_170" data-name="Path 170" d="M208,144.056s1.134,5.288,5.506,5.892" transform="translate(-208 -135.306)" fill="none" stroke="#253447" stroke-linecap="round" stroke-linejoin="round" stroke-width="1"/>
      <path id="Path_171" data-name="Path 171" d="M236.836,159.855a3.358,3.358,0,0,1-3.808,0" transform="translate(-225.207 -146.168)" fill="none" stroke="#253447" stroke-linecap="round" stroke-linejoin="round" stroke-width="1"/>
      <path id="Path_172" data-name="Path 172" d="M248.339,140.07a2.9,2.9,0,0,1-3.7,0" transform="translate(-233.191 -132.566)" fill="none" stroke="#253447" stroke-linecap="round" stroke-linejoin="round" stroke-width="1"/>
    </g>
  </g>
</svg>
